{"title":"Sidney Lumet - Serpico (1973)","uid":5612667,"size":2812944420,"categoryP":"video","categoryS":"movies","magnet":"?xt=urn:btih:f151ed2d4757685015d34004ffafbe138b8eb902&amp;dn=Sidney+Lumet+-+Serpico+%281973%29&amp;tr=udp%3A%2F%2Ftracker.openbittorrent.com%3A80&amp;tr=udp%3A%2F%2Fopen.demonii.com%3A1337&amp;tr=udp%3A%2F%2Ftracker.coppersurfer.tk%3A6969&amp;tr=udp%3A%2F%2Fexodus.desync.com%3A6969","seeders":1,"leechers":0,"uploader":"mfccorrea","files":5,"time":1275942625,"description":"Adapted by Waldo Salt and Norman Wexler from Peter Maas's book, Sidney Lumet's drama portrays the real-life struggle of an honest New York City cop against a corrupt system. Neophyte officer Frank Serpico (Al Pacino) is determined not to let his job get in the way of his individuality. Despite his colleagues' leery reactions, he keeps one foot firmly planted in the counterculture, sporting a beard and love beads and living in bohemian Greenwich Village, while he performs his police duties with dispatch. Serpico's peers genuinely ostracize him, however, when he refuses to take bribes like everybody else. Appalled by the extent of police corruption, Serpico goes to his superiors, but when he discovers that they have ignored his charges, he takes the potentially fatal step of breaking the blue wall of silence and going public with his exposÃƒÂ©. Serpico's revelations trigger an independent investigation by the Knapp Commission, but they also make him a marked man, permanently changing his life. Shot on location with a gritty emphasis on documentary-style realism, Serpico  presents a city in decay both literally and morally, as everybody is in on the take, and the cops and criminals are almost interchangeable. Released in late 1973, after months of revelations of Presidential malfeasance in the breaking Watergate scandal, Serpico's true story of bureaucratic depravity touched a cultural nerve, and the film became a hit with both critics and audiences, particularly for Pacino's complex performance as the honest, long-haired whistleblower. One year after his star-making triumph in The Godfather, Pacino  was nominated for an Oscar again, and lost again; Lumet  and Pacino would reunite two years later for another true New York story, Dog Day Afternoon. \n\n\n   General\n      Complete name : Serpico.1973.BDrip.XviD.AC3.D-Z0N3.avi\n      Format : AVI\n      Format/Info : Audio Video Interleave\n      Format profile : OpenDML\n      File size : 2.62 GiB\n      Duration : 2h 10mn\n      Overall bit rate : 2 882 Kbps\n      Writing application : VirtualDubMod 1.5.10.2 (build 2542/release)\n      Writing library : VirtualDubMod build 2542/release\n   Video #0\n      ID : 0\n      Format : MPEG-4 Visual\n      Format profile : AdvancedSimple@L5\n      Format settings, BVOP : Yes\n      Format settings, QPel : No\n      Format settings, GMC : No warppoints\n      Format settings, Matrix : Custom\n      Codec ID : XVID\n      Codec ID/Hint : XviD\n      Duration : 2h 10mn\n      Bit rate : 2 423 Kbps\n      Width : 720 pixels\n      Height : 384 pixels\n      Display aspect ratio : 1.875\n      Frame rate : 23.976 fps\n      Resolution : 24 bits\n      Colorimetry : 4:2:0\n      Scan type : Progressive\n      Bits/(Pixel*Frame) : 0.366\n      Stream size : 2.20 GiB (84%)\n      Writing library : XviD 1.2.1 (UTC 2008-12-04)\n   Audio #1\n      ID : 1\n      Format : AC-3\n      Format/Info : Audio Coding 3\n      Codec ID : 2000\n      Duration : 2h 10mn\n      Bit rate mode : Constant\n      Bit rate : 448 Kbps\n      Channel(s) : 2 channels\n      Channel positions : L R\n      Sampling rate : 48.0 KHz\n      Stream size : 417 MiB (16%)\n      Alignment : Split accross interleaves\n      Interleave, duration : 42 ms (1.00 video frame)\n      Interleave, preload duration : 500 ms\n &lt;a href=&quot;\nhttp://www.imdb.com/title/tt0070666/&quot; rel=&quot;nofollow&quot; target=&quot;_NEW&quot;&gt;\nhttp://www.imdb.com/title/tt0070666/&lt;/a&gt;\n\nEnglish audio; English, French, Spanish and Portuguese subtitles","torrent":{"xt":"urn:btih:f151ed2d4757685015d34004ffafbe138b8eb902","amp;dn":"Sidney+Lumet+-+Serpico+%281973%29","amp;tr":["udp%3A%2F%2Ftracker.openbittorrent.com%3A80","udp%3A%2F%2Fopen.demonii.com%3A1337","udp%3A%2F%2Ftracker.coppersurfer.tk%3A6969","udp%3A%2F%2Fexodus.desync.com%3A6969"],"infoHash":"f151ed2d4757685015d34004ffafbe138b8eb902","infoHashBuffer":{"type":"Buffer","data":[241,81,237,45,71,87,104,80,21,211,64,4,255,175,190,19,139,142,185,2]},"announce":[],"urlList":[]}}